<?xml version="1.0" encoding="UTF-8" standalone="no"?>
<!-- Created with Inkscape (http://www.inkscape.org/) -->

<svg
   width="267.76044mm"
   height="140.19359mm"
   viewBox="0 0 267.76044 140.19359"
   version="1.1"
   id="svg239"
   xmlns:inkscape="http://www.inkscape.org/namespaces/inkscape"
   xmlns:sodipodi="http://sodipodi.sourceforge.net/DTD/sodipodi-0.dtd"
   xmlns="http://www.w3.org/2000/svg"
   xmlns:svg="http://www.w3.org/2000/svg">
  <sodipodi:namedview
     id="namedview241"
     pagecolor="#505050"
     bordercolor="#eeeeee"
     borderopacity="1"
     inkscape:showpageshadow="0"
     inkscape:pageopacity="0"
     inkscape:pagecheckerboard="0"
     inkscape:deskcolor="#505050"
     inkscape:document-units="mm"
     showgrid="false" />
  <defs
     id="defs236" />
  <g
     inkscape:label="Layer 1"
     inkscape:groupmode="layer"
     id="layer1"
     transform="translate(30.056069,-78.403204)">
    <path
       style="fill:#000000;stroke-width:0.176389"
       d="m -29.938017,218.51522 c -0.06493,-0.0649 -0.118051,-23.74633 -0.118051,-52.62534 V 113.3826 l 4.894792,-4.82444 c 2.692136,-2.65344 10.56431,-10.44361 17.493722,-17.31149 6.929412,-6.86788 12.626821,-12.45916 12.660911,-12.42507 0.03409,0.0341 0.07957,23.5878 0.101071,52.34158 l 0.03909,52.27959 15.743565,0.0451 15.743561,0.045 -0.045,17.50565 -0.045,17.50565 -33.175358,0.0446 c -18.246444,0.0245 -33.228476,-0.009 -33.293404,-0.0735 z m 68.673871,-3.58736 -2.5e-4,-3.43992 17.51411,-17.51345 c 9.63277,-9.6324 17.57027,-17.4573 17.63889,-17.38867 0.0686,0.0686 0.12478,1.55931 0.12478,3.31262 v 3.18785 l -17.63864,17.64074 -17.63863,17.64074 -1.8e-4,-3.43991 z m 0,-13.93473 -1.7e-4,-3.43991 17.51411,-17.51345 c 9.63276,-9.6324 17.57026,-17.4573 17.63889,-17.38867 0.0686,0.0686 0.12478,1.55931 0.12478,3.31262 v 3.18785 l -17.63864,17.64074 -17.63864,17.64074 -1.7e-4,-3.43992 z m -2.5e-4,-13.75844 v -3.4398 l 17.54256,-17.5419 c 12.84098,-12.84049 17.57148,-17.46652 17.65048,-17.26065 0.0594,0.15468 0.0829,1.679 0.0522,3.38736 l -0.0557,3.10612 -17.59479,17.59434 -17.59479,17.59434 z M 127.1281,182.8346 c -0.78125,-0.19698 -1.42352,-0.68264 -1.94019,-1.46709 l -0.41922,-0.63649 -0.55092,0.58163 c -0.85008,0.89748 -1.95669,1.38039 -3.37314,1.472 -1.54436,0.0999 -2.55599,-0.16648 -3.37998,-0.88995 -0.78113,-0.68584 -1.11793,-1.44263 -1.11793,-2.51197 0,-0.97663 0.30929,-1.61939 1.12306,-2.33389 0.75665,-0.66434 1.82853,-1.07076 4.83006,-1.83136 l 2.33715,-0.59225 v -0.57422 c 0,-0.86412 -0.51743,-1.27977 -1.59316,-1.27977 -1.15819,0 -2.04475,0.38404 -2.42368,1.04989 -0.17369,0.30521 -0.45119,0.53586 -0.64545,0.5365 -0.68641,0.002 -3.09882,-0.74743 -3.09882,-0.96298 0,-0.37168 1.15243,-1.75312 1.88739,-2.26245 2.32337,-1.61009 6.87385,-1.61334 8.55145,-0.006 0.97065,0.92995 1.20283,1.99704 1.20283,5.52825 0,3.14742 0.002,3.1658 0.42427,3.44231 0.3855,0.25259 0.4847,0.25275 1.08542,0.002 0.36363,-0.15194 0.70074,-0.23664 0.74915,-0.18824 0.0484,0.0484 0.0957,0.58522 0.10521,1.19294 0.0169,1.09383 0.0109,1.10797 -0.60016,1.40697 -0.74811,0.36601 -2.33932,0.52976 -3.15334,0.32451 z m -3.87913,-2.93684 c 0.25523,-0.12907 0.67195,-0.48174 0.92604,-0.78371 0.38661,-0.45947 0.46198,-0.72257 0.46198,-1.61271 0,-0.77801 -0.0592,-1.04118 -0.22048,-0.97992 -0.12127,0.0461 -0.91869,0.29636 -1.77205,0.5562 -1.62684,0.49536 -2.15777,0.85766 -2.34395,1.59945 -0.13318,0.53064 0.29285,1.27129 0.86309,1.50046 0.45447,0.18265 1.42966,0.0518 2.08537,-0.27977 z m 16.13735,2.8256 c -0.59348,-0.1895 -1.13069,-0.55174 -1.72851,-1.16548 -0.47706,-0.48979 -0.88626,-0.86137 -0.90934,-0.82573 -0.0231,0.0356 -0.20018,0.46166 -0.39356,0.94673 l -0.35161,0.88195 -1.44981,0.0512 -1.44983,0.0512 v -8.82658 -8.82658 h 1.94028 1.94028 v 3.52778 c 0,1.94028 0.0519,3.52778 0.11537,3.52778 0.0635,0 0.37878,-0.30774 0.70073,-0.68386 0.32196,-0.37613 0.96269,-0.86123 1.42386,-1.078 0.71852,-0.33775 1.05361,-0.38323 2.34197,-0.31788 1.08823,0.0552 1.70924,0.18277 2.24845,0.46184 2.1528,1.1142 3.36775,3.6084 3.18071,6.52972 -0.22553,3.52226 -2.33371,5.81464 -5.4827,5.96173 -0.8131,0.038 -1.57291,-0.0392 -2.12629,-0.21588 z m 1.71284,-2.96077 c 1.77733,-0.74262 2.42842,-3.5226 1.28282,-5.4774 -0.53797,-0.91798 -1.33223,-1.33756 -2.53201,-1.33756 -1.75198,0 -2.86575,1.37483 -2.86575,3.53741 0,1.57247 0.50824,2.57114 1.58849,3.12127 0.89018,0.45334 1.69617,0.5032 2.52645,0.15628 z m -41.251396,2.66795 c -0.0469,-0.12237 -0.0646,-4.07218 -0.0393,-8.77735 l 0.0459,-8.55486 h 2.116666 2.11666 l 0.0461,6.92052 0.0461,6.92052 4.98094,0.0468 4.98095,0.0468 v 1.76389 1.76389 l -7.10442,0.0461 c -5.58906,0.0363 -7.122606,-0.001 -7.189676,-0.17639 z m -61.11216,-8.95467 v -3.43932 l 17.54256,-17.54189 c 12.81741,-12.81692 17.57156,-17.46631 17.65024,-17.26128 0.0592,0.15434 0.0827,1.71365 0.0522,3.46514 l -0.0555,3.18452 -7.9375,7.86447 c -4.36563,4.32545 -12.28328,12.20768 -17.59479,17.51607 l -9.65729,9.6516 z m -0.007,-13.7685 -0.007,-3.42849 17.51256,-17.4184 c 9.63192,-9.58012 17.57756,-17.4184 17.657,-17.4184 0.0794,0 0.11978,1.51512 0.0896,3.36694 l -0.0548,3.36694 -17.04965,16.96188 c -9.3773,9.32903 -17.29496,17.19501 -17.59479,17.47995 l -0.54513,0.51807 z M 145.89227,156.7006 c -1.37123,-0.19775 -3.12964,-1.09507 -3.91818,-1.99945 -1.55381,-1.78207 -2.0565,-4.39506 -1.28914,-6.70101 0.52156,-1.56728 1.83702,-3.01433 3.39369,-3.73317 1.01944,-0.47077 1.27031,-0.5117 3.13654,-0.5117 1.90971,0 2.09716,0.0326 3.20169,0.55585 1.37615,0.652 2.32571,1.54825 3.06012,2.88831 0.50131,0.91474 0.52917,1.07234 0.52917,2.99404 0,1.75954 -0.0537,2.1375 -0.40513,2.85086 -0.97926,1.98786 -2.86407,3.3486 -5.08244,3.66927 -0.66837,0.0966 -1.29459,0.16755 -1.3916,0.15764 -0.097,-0.01 -0.65264,-0.0867 -1.23472,-0.17064 z m 2.97291,-3.38876 c 1.62888,-1.24241 1.53421,-5.25205 -0.14857,-6.29206 -0.40083,-0.24773 -0.87953,-0.35409 -1.59366,-0.35409 -0.9555,0 -1.06218,0.0436 -1.66943,0.68193 -0.80839,0.84979 -1.14175,1.96166 -1.0132,3.37933 0.11693,1.28955 0.76227,2.47099 1.5766,2.88635 0.82416,0.42037 2.07553,0.28793 2.84826,-0.30146 z m 43.45663,3.40625 c -1.03692,-0.18059 -2.27459,-0.88536 -2.76548,-1.57476 -0.75877,-1.06559 -0.88975,-1.82355 -0.88975,-5.14843 v -3.15282 h -1.14653 -1.14653 v -1.40269 -1.4027 l 1.10243,-0.0525 1.10243,-0.0525 0.0508,-1.53078 0.0508,-1.53079 1.18394,-0.26866 c 0.65117,-0.14777 1.51849,-0.3219 1.9274,-0.38695 l 0.74348,-0.11829 0.0503,1.91774 0.0503,1.91773 2.25627,0.0494 2.25628,0.0494 -0.0514,1.36169 -0.0514,1.36168 -2.26076,0.0495 -2.26076,0.0495 0.0559,2.92074 0.0559,2.92074 0.49491,0.42529 c 0.89041,0.76518 2.42184,0.44886 3.06038,-0.63213 0.17223,-0.29154 0.39524,-0.52458 0.49558,-0.51786 0.20361,0.0136 1.85815,2.00653 1.85815,2.23815 0,0.18901 -1.16372,1.29138 -1.85208,1.75443 -1.03761,0.69798 -2.87673,1.01609 -4.37046,0.75594 z m 21.12741,-0.0141 c -1.37476,-0.20271 -3.13161,-1.10077 -3.91818,-2.00287 -0.34303,-0.39343 -0.8321,-1.15189 -1.08679,-1.68547 -0.40887,-0.85653 -0.46309,-1.18702 -0.46309,-2.82222 0,-1.53449 0.0664,-1.99578 0.38702,-2.69006 0.57737,-1.25014 1.98873,-2.64567 3.27792,-3.24116 1.00746,-0.46535 1.26409,-0.50697 3.12603,-0.50697 1.90971,0 2.09716,0.0325 3.20169,0.55584 2.35813,1.11725 3.53713,2.91382 3.6476,5.55832 0.083,1.98798 -0.26028,3.19169 -1.26192,4.4242 -1.60089,1.9699 -4.06603,2.82977 -6.91028,2.41039 z m 2.8726,-3.28074 c 1.2943,-0.96635 1.69276,-3.46637 0.84328,-5.29091 -0.51642,-1.10915 -1.11762,-1.46669 -2.46626,-1.46669 -0.83671,0 -1.06004,0.0766 -1.59677,0.54789 -1.65113,1.44971 -1.41928,5.34763 0.376,6.32153 0.83618,0.4536 2.15592,0.4017 2.84375,-0.11182 z m -42.97869,3.04303 c -2.49444,-0.81243 -3.22898,-3.81216 -1.35617,-5.53844 0.79126,-0.72938 2.17459,-1.26906 5.03795,-1.96549 2.04401,-0.49715 2.29305,-0.61954 2.29305,-1.12685 0,-1.05663 -1.45344,-1.65069 -2.88373,-1.17866 -0.56493,0.18645 -1.38945,0.93324 -1.55322,1.40681 -0.0566,0.1637 -3.22141,-0.5309 -3.44707,-0.75655 -0.14836,-0.14836 0.56671,-1.19757 1.30242,-1.91105 1.14962,-1.11486 2.50146,-1.61653 4.57437,-1.69755 2.95741,-0.1156 4.60109,0.62307 5.42503,2.43799 0.3123,0.6879 0.36959,1.24068 0.4296,4.14514 0.0425,2.05789 0.1436,3.44238 0.26188,3.58716 0.18899,0.23131 0.8258,0.20929 1.65021,-0.0571 0.35447,-0.11452 0.38435,-0.0544 0.45113,0.90765 0.0836,1.20488 -0.12486,1.5574 -1.07768,1.82208 -0.93687,0.26024 -2.78121,0.21775 -3.35162,-0.0772 -0.5138,-0.2657 -1.50567,-1.29873 -1.64324,-1.71144 -0.0531,-0.15947 -0.28344,-0.0206 -0.70208,0.42323 -1.20969,1.28266 -3.64853,1.86421 -5.41083,1.29024 z m 4.69243,-2.85928 c 0.81824,-0.61091 1.15969,-1.23064 1.24503,-2.25973 0.0624,-0.75179 0.0251,-0.9766 -0.16128,-0.97375 -0.45143,0.007 -3.1932,0.86873 -3.48258,1.0947 -0.83596,0.65279 -0.96776,1.53296 -0.33161,2.21443 0.34565,0.37028 0.51736,0.41533 1.33023,0.34903 0.5533,-0.0451 1.12346,-0.21805 1.40021,-0.42468 z m -78.357226,2.54511 c -0.0538,-0.22133 -0.0757,-4.21242 -0.0489,-8.86909 l 0.0489,-8.46667 h 2.116666 2.11666 v 8.81945 8.81944 l -2.06781,0.0497 c -2.025476,0.0486 -2.069816,0.0414 -2.165556,-0.35278 z m 8.202126,-5.87048 v -6.2618 h 1.94028 1.94027 v 0.88194 c 0,1.00932 0.17342,1.1001 0.69698,0.36483 0.20252,-0.28441 0.8556,-0.76066 1.45129,-1.05833 1.42331,-0.71124 3.11846,-0.75749 4.46632,-0.12187 1.06796,0.50363 1.53068,0.9835 2.06395,2.14049 0.38578,0.83698 0.40815,1.1091 0.46011,5.59814 l 0.0546,4.71841 h -2.03899 -2.03899 v -3.91306 c 0,-3.56211 -0.0319,-3.9789 -0.35539,-4.64718 -0.41901,-0.86556 -0.93156,-1.14115 -2.12236,-1.14115 -0.78012,0 -0.94718,0.0735 -1.56059,0.68695 -0.92349,0.92348 -1.07694,1.74423 -1.07694,5.75992 v 3.25452 h -1.94028 -1.94028 z m 16.58056,0.006 v -6.26758 h 2.02847 2.02847 v 0.90608 0.90608 l 0.84282,-0.78836 c 1.18479,-1.10824 2.15466,-1.4424 3.89416,-1.3417 1.58445,0.0917 2.65158,0.61842 3.36629,1.66147 0.81425,1.1883 0.87664,1.65053 0.88482,6.5556 l 0.008,4.63598 -1.98437,-0.0499 -1.98438,-0.0499 -0.0882,-4.14514 c -0.0921,-4.3295 -0.14958,-4.653 -0.92255,-5.19442 -0.49687,-0.34801 -1.93546,-0.35539 -2.59696,-0.0133 -0.27686,0.14317 -0.68963,0.55989 -0.91728,0.92604 -0.39309,0.63225 -0.41834,0.86091 -0.5021,4.54629 l -0.0882,3.88056 -1.98438,0.0499 -1.98437,0.0499 v -6.26758 z m 34.85534,3.12688 c -0.66892,-1.72296 -1.76032,-4.5144 -2.42535,-6.20319 -0.66503,-1.6888 -1.20916,-3.09771 -1.20916,-3.13091 0,-0.0332 0.94114,-0.0604 2.09143,-0.0604 h 2.09142 l 1.06583,2.95451 c 0.58621,1.62498 1.25215,3.49029 1.47987,4.14514 0.22772,0.65484 0.46284,1.19062 0.5225,1.19062 0.0597,0 0.80597,-1.86531 1.65846,-4.14514 l 1.54996,-4.14513 h 1.82582 c 1.0042,0 1.82582,0.0243 1.82582,0.0541 0,0.0298 -0.56104,1.47836 -1.24675,3.2191 -0.68571,1.74074 -1.39367,3.56185 -1.57323,4.04692 -0.17958,0.48507 -0.70995,1.83445 -1.17861,2.99862 l -0.8521,2.11666 -2.20486,0.0459 -2.20486,0.0459 z m 41.69744,-3.13844 v -6.26759 l 1.98437,0.0499 1.98438,0.0499 0.0493,5.82083 c 0.0271,3.20146 0.006,5.99943 -0.0474,6.21771 -0.093,0.38161 -0.17126,0.39688 -2.03366,0.39688 h -1.93691 z m 23.63611,0.0115 v -6.26758 h 2.02847 2.02848 l 0.002,1.01423 0.002,1.01424 0.31137,-0.47213 c 1.18831,-1.80179 4.14515,-2.47832 6.22395,-1.42405 1.17267,0.59471 2.00374,1.64657 2.26556,2.86742 0.10955,0.5108 0.19263,2.76089 0.19263,5.21683 v 4.31862 l -1.98438,-0.0499 -1.98437,-0.0499 -0.0882,-4.05694 c -0.0924,-4.24868 -0.15643,-4.60351 -0.94668,-5.24365 -0.52852,-0.42811 -1.97755,-0.41041 -2.70484,0.033 -1.08987,0.66454 -1.18951,1.0815 -1.28737,5.387 l -0.0882,3.88055 -1.98437,0.0499 -1.98438,0.0499 v -6.26758 z m -185.913646,-4.32777 -2.5e-4,-3.43991 17.51411,-17.51345 c 9.63277,-9.6324 17.57027,-17.4573 17.63889,-17.38867 0.0686,0.0686 0.12478,1.5593 0.12478,3.31262 v 3.18784 l -17.63864,17.64075 -17.63863,17.64074 -1.8e-4,-3.43992 z m 162.101146,-5.55592 v -1.67569 h 2.11667 2.11666 v 1.67569 1.6757 h -2.11666 -2.11667 z m -14.02443,-4.82687 c -1.17703,-0.53472 -2.4913,-2.41382 -2.11457,-3.02337 0.11999,-0.19415 2.56432,-1.47265 2.6334,-1.3774 0.0221,0.0305 0.11604,0.33324 0.20873,0.67278 0.34576,1.26648 1.70283,1.29629 2.3307,0.0512 0.41347,-0.81996 0.60274,-0.25242 -2.50636,-7.51593 -1.32137,-3.08696 -2.40247,-5.68649 -2.40247,-5.77674 0,-0.22373 4.18248,-0.21269 4.32098,0.0114 0.0596,0.0965 0.73164,1.86016 1.49334,3.9192 0.76169,2.05904 1.45925,3.7685 1.55016,3.7988 0.0909,0.0303 0.82411,-1.73334 1.62931,-3.9192 l 1.46402,-3.97429 h 1.82665 c 1.00466,0 1.82665,0.0646 1.82665,0.14352 0,0.13518 -1.87939,4.83272 -4.13939,10.3464 -1.83485,4.47643 -2.69321,5.75104 -4.41547,6.55661 -1.10294,0.5159 -2.68009,0.55292 -3.70568,0.087 z m -148.076716,-3.37554 -2.5e-4,-3.43992 17.52492,-17.52425 c 13.39006,-13.38955 17.55181,-17.45418 17.63889,-17.22725 0.0627,0.16335 0.11397,1.65889 0.11397,3.32343 v 3.02643 l -17.63864,17.64073 -17.63863,17.64074 -1.8e-4,-3.43991 z m 91.774576,-1.40577 c -0.72444,-0.36636 -1.22253,-0.76129 -1.47467,-1.16927 -0.20941,-0.33883 -0.464,-0.5883 -0.56576,-0.55438 -0.10176,0.0339 -0.34176,0.47418 -0.53333,0.97835 l -0.34831,0.91668 h -1.47568 -1.47569 v -8.90764 -8.90764 h 2.02848 2.02847 v 3.63505 3.63505 l 0.79582,-0.88515 c 0.92896,-1.03322 1.91741,-1.44606 3.46231,-1.44606 4.23401,0 6.84477,4.63869 5.24479,9.31867 -0.81219,2.37566 -2.6481,3.74716 -5.18139,3.87073 -1.30195,0.0635 -1.49575,0.026 -2.50504,-0.48439 z m 2.00848,-2.66166 c 0.73849,-0.27842 1.62319,-1.21241 1.82021,-1.92164 0.31673,-1.14009 0.21525,-2.69969 -0.23052,-3.54265 -0.55347,-1.04663 -1.64595,-1.63843 -2.82607,-1.53087 -1.41313,0.12878 -2.28201,0.99749 -2.62161,2.62111 -0.60599,2.89714 1.48558,5.26848 3.85799,4.37405 z m 33.04031,2.91568 c -0.76565,-0.34539 -1.56912,-1.09033 -1.79005,-1.65966 l -0.16706,-0.43049 -0.7097,0.7312 c -1.02019,1.0511 -2.32974,1.50859 -4.04459,1.41299 -2.38547,-0.13299 -3.54644,-1.17659 -3.66265,-3.29239 -0.0588,-1.07034 -0.0201,-1.22615 0.47242,-1.90251 0.67137,-0.92198 2.06162,-1.60161 4.60996,-2.25361 1.01865,-0.26062 2.14974,-0.55077 2.51354,-0.64476 0.60061,-0.15518 0.66146,-0.22589 0.66146,-0.76866 0,-1.22102 -1.53379,-1.70593 -3.11921,-0.98613 -0.44714,0.20302 -0.8486,0.54903 -1.01876,0.87807 -0.15445,0.29867 -0.3383,0.5418 -0.40857,0.54029 -0.59045,-0.0127 -3.13433,-0.87484 -3.16708,-1.07339 -0.0726,-0.44012 0.913,-1.6415 1.89997,-2.31593 1.32078,-0.90254 2.82141,-1.25998 4.84575,-1.15424 1.91268,0.0999 2.907,0.49056 3.81521,1.49888 0.86139,0.95638 1.03325,1.86953 1.03325,5.49027 0,2.06288 0.0639,3.01854 0.21167,3.16632 0.26338,0.26338 1.10509,0.27457 1.57892,0.021 0.19595,-0.10487 0.38024,-0.1644 0.40954,-0.13229 0.0293,0.0321 0.10905,0.54921 0.17724,1.1491 l 0.12398,1.0907 -0.76041,0.38794 c -0.99263,0.5064 -2.66838,0.62465 -3.50483,0.24732 z m -3.53129,-2.86104 c 0.92163,-0.46305 1.41462,-1.31725 1.41462,-2.45116 0,-0.51923 -0.0595,-0.94212 -0.13229,-0.93975 -0.43049,0.014 -3.11062,0.88157 -3.48876,1.12933 -0.84739,0.55524 -1.00355,1.6249 -0.33484,2.29362 0.37529,0.37527 1.76544,0.35775 2.54127,-0.032 z m -62.438156,-6.12924 v -8.90764 h 2.116666 2.11666 v 7.05556 7.05555 h 5.02709 5.02708 v 1.85209 1.85208 h -7.14375 -7.143746 z m 17.403706,8.79005 c -0.0647,-0.0647 -0.1176,-2.88249 -0.1176,-6.26181 v -6.14421 h 2.02847 2.02848 v 6.2618 6.26181 h -1.91088 c -1.05099,0 -1.9638,-0.0529 -2.02847,-0.11759 z m 24.57685,-6.14422 v -6.2618 h 1.94028 1.94027 l 0.008,1.19062 0.008,1.19063 0.47679,-0.61441 c 1.28681,-1.65823 2.41052,-2.22519 4.10565,-2.07148 1.45644,0.13206 2.35511,0.73735 2.89382,1.94909 0.44695,1.00534 0.68049,2.21957 0.48318,2.51223 -0.11855,0.17586 -2.79174,1.3144 -3.08122,1.31232 -0.0728,-5.3e-4 -0.13229,-0.32455 -0.13229,-0.72007 0,-0.56612 -0.11421,-0.83334 -0.5368,-1.25593 -0.49521,-0.49521 -0.61151,-0.53061 -1.50067,-0.45688 -1.13687,0.0943 -1.70075,0.52478 -2.26127,1.72638 -0.32829,0.70379 -0.37736,1.18857 -0.43296,4.27743 l -0.0627,3.48368 h -1.92431 -1.92433 v -6.26181 z m 30.24276,6.04016 c -0.0468,-0.12191 -0.0641,-2.91988 -0.0386,-6.21771 l 0.0465,-5.99606 1.97619,-0.0498 1.97617,-0.0498 0.0523,1.19226 0.0523,1.19225 0.64334,-0.89717 c 1.4674,-2.04634 4.38441,-2.45057 6.04512,-0.83772 0.69081,0.6709 1.20828,2.04572 1.12793,2.99663 -0.0537,0.63588 -0.0942,0.67082 -1.43933,1.24373 -0.76123,0.32421 -1.45576,0.58947 -1.5434,0.58947 -0.0876,0 -0.15935,-0.24206 -0.15935,-0.53792 0,-0.66505 -0.42013,-1.50797 -0.87218,-1.7499 -0.52565,-0.28133 -1.75066,-0.21472 -2.33685,0.12706 -0.29118,0.16977 -0.73863,0.70556 -0.9943,1.19063 -0.4502,0.85405 -0.46689,0.99488 -0.52771,4.45381 l -0.0628,3.57188 h -1.93013 c -1.38681,0 -1.95407,-0.0624 -2.01519,-0.22165 z m -133.077236,-12.30229 -2.5e-4,-3.43992 17.52492,-17.52425 c 13.39006,-13.38955 17.55181,-17.45418 17.63889,-17.22726 0.0627,0.16335 0.11397,1.6589 0.11397,3.32343 v 3.02643 l -17.63864,17.64074 -17.63863,17.64074 -1.8e-4,-3.43991 z m 78.140026,-3.61564 v -1.6757 h 2.11667 2.11667 v 1.6757 1.67569 h -2.11667 -2.11667 z M 12.630046,113.54747 c 0,-0.0734 7.878908,-8.01092 17.508688,-17.63889 L 47.647414,78.4032 h 3.2066 c 1.76363,0 3.2465,0.0645 3.29526,0.14344 0.0488,0.0789 -7.78578,8.0164 -17.41008,17.63889 l -17.498737,17.49544 h -3.305206 c -1.817862,0 -3.305205,-0.0601 -3.305205,-0.1335 z m 14.04361,-0.009 c -0.04858,-0.079 7.765128,-7.99665 17.363788,-17.59519 l 17.45211,-17.45189 3.1947,-0.0554 c 1.75709,-0.0305 3.31844,-0.008 3.46968,0.0501 0.19771,0.0759 -2.8683,3.22806 -10.91161,11.21835 -6.15262,6.11205 -14.08626,14.00718 -17.63031,17.54472 l -6.44373,6.43189 h -3.20315 c -1.76174,0 -3.242901,-0.0643 -3.291478,-0.14291 z M 7.338379,108.38736 v -3.44081 L 20.614387,91.67487 33.890394,78.4032 h 3.20594 c 1.76327,0 3.2457,0.0643 3.29428,0.14292 0.0486,0.0786 -7.3683,7.59922 -16.481955,16.71249 l -16.57028,16.56957 z m 0,-13.75429 v -3.43628 l 6.396798,-6.3968 6.396797,-6.39679 h 3.304593 c 1.817525,0 3.304591,0.0598 3.304591,0.13289 0,0.0731 -4.365625,4.49798 -9.701389,9.83308 l -9.70139,9.70018 z m 0,-13.27743 V 78.4032 h 2.822222 c 1.552223,0 2.822223,0.0605 2.822223,0.13436 0,0.0739 -1.27,1.40249 -2.822223,2.95244 l -2.822222,2.81809 z"
       id="path225"
       inkscape:export-filename="path225.svg"
       inkscape:export-xdpi="47.999622"
       inkscape:export-ydpi="47.999622" />
  </g>
</svg>
